<?xml version="1.0" standalone="no"?>
<svg xmlns:xlink="http://www.w3.org/1999/xlink" id="wave" style="transform:rotate(0deg); transition: 0.3s" viewBox="0 0 1440 310" version="1.1" xmlns="http://www.w3.org/2000/svg"><defs><linearGradient id="sw-gradient-0" x1="0" x2="0" y1="1" y2="0"><stop stop-color="rgba(6, 1, 221, 1)" offset="0%"/><stop stop-color="rgba(0, 182, 255, 1)" offset="100%"/></linearGradient></defs><path style="transform:translate(0, 0px); opacity:1" fill="url(#sw-gradient-0)" d="M0,248L60,237.7C120,227,240,207,360,191.2C480,176,600,165,720,170.5C840,176,960,196,1080,201.5C1200,207,1320,196,1440,201.5C1560,207,1680,227,1800,217C1920,207,2040,165,2160,144.7C2280,124,2400,124,2520,118.8C2640,114,2760,103,2880,108.5C3000,114,3120,134,3240,144.7C3360,155,3480,155,3600,129.2C3720,103,3840,52,3960,31C4080,10,4200,21,4320,36.2C4440,52,4560,72,4680,72.3C4800,72,4920,52,5040,72.3C5160,93,5280,155,5400,180.8C5520,207,5640,196,5760,201.5C5880,207,6000,227,6120,242.8C6240,258,6360,269,6480,248C6600,227,6720,176,6840,149.8C6960,124,7080,124,7200,139.5C7320,155,7440,186,7560,206.7C7680,227,7800,238,7920,222.2C8040,207,8160,165,8280,134.3C8400,103,8520,83,8580,72.3L8640,62L8640,310L8580,310C8520,310,8400,310,8280,310C8160,310,8040,310,7920,310C7800,310,7680,310,7560,310C7440,310,7320,310,7200,310C7080,310,6960,310,6840,310C6720,310,6600,310,6480,310C6360,310,6240,310,6120,310C6000,310,5880,310,5760,310C5640,310,5520,310,5400,310C5280,310,5160,310,5040,310C4920,310,4800,310,4680,310C4560,310,4440,310,4320,310C4200,310,4080,310,3960,310C3840,310,3720,310,3600,310C3480,310,3360,310,3240,310C3120,310,3000,310,2880,310C2760,310,2640,310,2520,310C2400,310,2280,310,2160,310C2040,310,1920,310,1800,310C1680,310,1560,310,1440,310C1320,310,1200,310,1080,310C960,310,840,310,720,310C600,310,480,310,360,310C240,310,120,310,60,310L0,310Z"/><defs><linearGradient id="sw-gradient-1" x1="0" x2="0" y1="1" y2="0"><stop stop-color="rgba(0, 182, 255, 1)" offset="0%"/><stop stop-color="rgba(6, 1, 221, 1)" offset="100%"/></linearGradient></defs><path style="transform:translate(0, 50px); opacity:0.9" fill="url(#sw-gradient-1)" d="M0,93L60,113.7C120,134,240,176,360,186C480,196,600,176,720,160.2C840,145,960,134,1080,124C1200,114,1320,103,1440,118.8C1560,134,1680,176,1800,191.2C1920,207,2040,196,2160,206.7C2280,217,2400,248,2520,258.3C2640,269,2760,258,2880,211.8C3000,165,3120,83,3240,62C3360,41,3480,83,3600,103.3C3720,124,3840,124,3960,129.2C4080,134,4200,145,4320,129.2C4440,114,4560,72,4680,46.5C4800,21,4920,10,5040,25.8C5160,41,5280,83,5400,103.3C5520,124,5640,124,5760,139.5C5880,155,6000,186,6120,180.8C6240,176,6360,134,6480,98.2C6600,62,6720,31,6840,51.7C6960,72,7080,145,7200,155C7320,165,7440,114,7560,124C7680,134,7800,207,7920,201.5C8040,196,8160,114,8280,82.7C8400,52,8520,72,8580,82.7L8640,93L8640,310L8580,310C8520,310,8400,310,8280,310C8160,310,8040,310,7920,310C7800,310,7680,310,7560,310C7440,310,7320,310,7200,310C7080,310,6960,310,6840,310C6720,310,6600,310,6480,310C6360,310,6240,310,6120,310C6000,310,5880,310,5760,310C5640,310,5520,310,5400,310C5280,310,5160,310,5040,310C4920,310,4800,310,4680,310C4560,310,4440,310,4320,310C4200,310,4080,310,3960,310C3840,310,3720,310,3600,310C3480,310,3360,310,3240,310C3120,310,3000,310,2880,310C2760,310,2640,310,2520,310C2400,310,2280,310,2160,310C2040,310,1920,310,1800,310C1680,310,1560,310,1440,310C1320,310,1200,310,1080,310C960,310,840,310,720,310C600,310,480,310,360,310C240,310,120,310,60,310L0,310Z"/><defs><linearGradient id="sw-gradient-2" x1="0" x2="0" y1="1" y2="0"><stop stop-color="rgba(6, 1, 221, 1)" offset="0%"/><stop stop-color="rgba(0, 182, 255, 1)" offset="100%"/></linearGradient></defs><path style="transform:translate(0, 100px); opacity:0.8" fill="url(#sw-gradient-2)" d="M0,155L60,165.3C120,176,240,196,360,191.2C480,186,600,155,720,118.8C840,83,960,41,1080,20.7C1200,0,1320,0,1440,36.2C1560,72,1680,145,1800,180.8C1920,217,2040,217,2160,217C2280,217,2400,217,2520,196.3C2640,176,2760,134,2880,118.8C3000,103,3120,114,3240,124C3360,134,3480,145,3600,139.5C3720,134,3840,114,3960,98.2C4080,83,4200,72,4320,87.8C4440,103,4560,145,4680,180.8C4800,217,4920,248,5040,222.2C5160,196,5280,114,5400,98.2C5520,83,5640,134,5760,139.5C5880,145,6000,103,6120,72.3C6240,41,6360,21,6480,56.8C6600,93,6720,186,6840,222.2C6960,258,7080,238,7200,206.7C7320,176,7440,134,7560,129.2C7680,124,7800,155,7920,170.5C8040,186,8160,186,8280,170.5C8400,155,8520,124,8580,108.5L8640,93L8640,310L8580,310C8520,310,8400,310,8280,310C8160,310,8040,310,7920,310C7800,310,7680,310,7560,310C7440,310,7320,310,7200,310C7080,310,6960,310,6840,310C6720,310,6600,310,6480,310C6360,310,6240,310,6120,310C6000,310,5880,310,5760,310C5640,310,5520,310,5400,310C5280,310,5160,310,5040,310C4920,310,4800,310,4680,310C4560,310,4440,310,4320,310C4200,310,4080,310,3960,310C3840,310,3720,310,3600,310C3480,310,3360,310,3240,310C3120,310,3000,310,2880,310C2760,310,2640,310,2520,310C2400,310,2280,310,2160,310C2040,310,1920,310,1800,310C1680,310,1560,310,1440,310C1320,310,1200,310,1080,310C960,310,840,310,720,310C600,310,480,310,360,310C240,310,120,310,60,310L0,310Z"/></svg>